{"accessors" : [{"bufferView" : 0, "byteOffset" : 0, "componentType" : 5123, "count" : 6606, "type" : "SCALAR", "max" : [6605], "min" : [0]}, {"bufferView" : 1, "byteOffset" : 0, "componentType" : 5126, "count" : 6606, "type" : "VEC3", "max" : [0.05554363131523132, 0.07242705672979355, 0.06829188019037247], "min" : [-0.03627763316035271, -0.03651915118098259, -0.06654205918312073], "name" : "POSITION"}, {"bufferView" : 1, "byteOffset" : 12, "componentType" : 5126, "count" : 6606, "type" : "VEC3", "max" : [0.9998956918716431, 1.0000042915344238, 1.0000040531158447], "min" : [-0.9999613761901855, -1.0000042915344238, -0.9963477253913879], "name" : "NORMAL"}, {"bufferView" : 1, "byteOffset" : 24, "componentType" : 5126, "count" : 6606, "type" : "VEC2", "max" : [0.9930552840232849, 0.9913206100463867], "min" : [0.008103162050247192, 0.005353391170501709], "name" : "TEXCOORD_0"}, {"bufferView" : 0, "byteOffset" : 13212, "componentType" : 5123, "count" : 324, "type" : "SCALAR", "max" : [323], "min" : [0]}, {"bufferView" : 2, "byteOffset" : 0, "componentType" : 5126, "count" : 324, "type" : "VEC3", "max" : [0.006881980691105127, 0.010062583722174168, 0.0009011108777485788], "min" : [-0.0037909343373030424, -0.0006388638284988701, -0.003606995800510049], "name" : "POSITION"}, {"bufferView" : 2, "byteOffset" : 12, "componentType" : 5126, "count" : 324, "type" : "VEC3", "max" : [0.9997900724411011, 0.9891585111618042, 0.9983358383178711], "min" : [-0.9997900724411011, -0.9776411652565002, -0.14288325607776642], "name" : "NORMAL"}, {"bufferView" : 2, "byteOffset" : 24, "componentType" : 5126, "count" : 324, "type" : "VEC2", "max" : [0.4025968313217163, 0.8942623138427734], "min" : [0.010026395320892334, 0.35050034523010254], "name" : "TEXCOORD_0"}, {"bufferView" : 0, "byteOffset" : 13860, "componentType" : 5123, "count" : 924, "type" : "SCALAR", "max" : [923], "min" : [0]}, {"bufferView" : 3, "byteOffset" : 0, "componentType" : 5126, "count" : 924, "type" : "VEC3", "max" : [0.0029104368295520544, 0.03536209091544151, -0.018384244292974472], "min" : [-0.009892965666949749, 0.010134127922356129, -0.0378272607922554], "name" : "POSITION"}, {"bufferView" : 3, "byteOffset" : 12, "componentType" : 5126, "count" : 924, "type" : "VEC3", "max" : [0.19561640918254852, 0.9657922983169556, 0.9995601177215576], "min" : [-0.999701738357544, -0.9905915856361389, -0.994179368019104], "name" : "NORMAL"}, {"bufferView" : 3, "byteOffset" : 24, "componentType" : 5126, "count" : 924, "type" : "VEC2", "max" : [0.9920789003372192, 0.8642340898513794], "min" : [0.4958495795726776, 0.5687195658683777], "name" : "TEXCOORD_0"}, {"bufferView" : 0, "byteOffset" : 15708, "componentType" : 5123, "count" : 777, "type" : "SCALAR", "max" : [776], "min" : [0]}, {"bufferView" : 4, "byteOffset" : 0, "componentType" : 5126, "count" : 777, "type" : "VEC3", "max" : [0.026728563010692596, -0.0015822395216673613, 0.011600418016314507], "min" : [0.009655728004872799, -0.01842714473605156, -0.0014641366433352232], "name" : "POSITION"}, {"bufferView" : 4, "byteOffset" : 12, "componentType" : 5126, "count" : 777, "type" : "VEC3", "max" : [0.9921473860740662, 0.9688408970832825, 0.9922295808792114], "min" : [-0.9933454990386963, -0.988294243812561, -0.9044016599655151], "name" : "NORMAL"}, {"bufferView" : 4, "byteOffset" : 24, "componentType" : 5126, "count" : 777, "type" : "VEC2", "max" : [0.45035451650619507, 0.9699754118919373], "min" : [0.007637053728103638, 0.7645360827445984], "name" : "TEXCOORD_0"}, {"bufferView" : 0, "byteOffset" : 17264, "componentType" : 5123, "count" : 1050, "type" : "SCALAR", "max" : [1049], "min" : [0]}, {"bufferView" : 5, "byteOffset" : 0, "componentType" : 5126, "count" : 1050, "type" : "VEC3", "max" : [0.022879868745803833, -0.013245987705886364, -0.006585977505892515], "min" : [-0.0036138819996267557, -0.030473319813609123, -0.03183675557374954], "name" : "POSITION"}, {"bufferView" : 5, "byteOffset" : 12, "componentType" : 5126, "count" : 1050, "type" : "VEC3", "max" : [0.999804675579071, 0.28033411502838135, 0.8579168915748596], "min" : [-0.999804675579071, -0.9985312819480896, -0.9999986290931702], "name" : "NORMAL"}, {"bufferView" : 5, "byteOffset" : 24, "componentType" : 5126, "count" : 1050, "type" : "VEC2", "max" : [0.9920796155929565, 0.8248858451843262], "min" : [0.8686429262161255, 0.007208108901977539], "name" : "TEXCOORD_0"}, {"bufferView" : 0, "byteOffset" : 19364, "componentType" : 5123, "count" : 324, "type" : "SCALAR", "max" : [323], "min" : [0]}, {"bufferView" : 6, "byteOffset" : 0, "componentType" : 5126, "count" : 324, "type" : "VEC3", "max" : [0.002793950028717518, -0.003985998686403036, 0.0032238939311355352], "min" : [-0.007884337566792965, -0.014667167328298092, -0.0012039848370477557], "name" : "POSITION"}, {"bufferView" : 6, "byteOffset" : 12, "componentType" : 5126, "count" : 324, "type" : "VEC3", "max" : [0.99982088804245, 0.9869658350944519, 0.9976047873497009], "min" : [-0.9998211860656738, -0.9776538014411926, -0.13369683921337128], "name" : "NORMAL"}, {"bufferView" : 6, "byteOffset" : 24, "componentType" : 5126, "count" : 324, "type" : "VEC2", "max" : [0.43388935923576355, 0.5679986476898193], "min" : [0.009226113557815552, 0.22105461359024048], "name" : "TEXCOORD_0"}], "asset" : {"generator" : "Aspose.3D 21.11", "version" : "2.0"}, "buffers" : [{"uri" : "data:application/octet-stream;base64,", "byteLength" : 340200}], "bufferViews" : [{"buffer" : 0, "byteOffset" : 0, "byteLength" : 20012, "target" : 34963}, {"buffer" : 0, "byteOffset" : 20016, "byteLength" : 211392, "byteStride" : 32, "target" : 34962}, {"buffer" : 0, "byteOffset" : 231412, "byteLength" : 10368, "byteStride" : 32, "target" : 34962}, {"buffer" : 0, "byteOffset" : 241784, "byteLength" : 29568, "byteStride" : 32, "target" : 34962}, {"buffer" : 0, "byteOffset" : 271356, "byteLength" : 24864, "byteStride" : 32, "target" : 34962}, {"buffer" : 0, "byteOffset" : 296224, "byteLength" : 33600, "byteStride" : 32, "target" : 34962}, {"buffer" : 0, "byteOffset" : 329828, "byteLength" : 10368, "byteStride" : 32, "target" : 34962}], "images" : [{"uri" : "data:image/png;base64,"}, {"uri" : "data:image/png;base64,"}], "materials" : [{"name" : "skel_controller_materials_controllerMTL1", "pbrMetallicRoughness" : {"baseColorFactor" : [1, 1, 1, 1], "baseColorTexture" : {"index" : 0, "texCoord" : 0}, "metallicFactor" : 1, "roughnessFactor" : 1, "metallicRoughnessTexture" : {"index" : 1, "texCoord" : 0}}, "emissiveFactor" : [0, 0, 0], "alphaMode" : "OPAQUE", "doubleSided" : true}, {"name" : "skel_controller_materials_controllerMTL1", "pbrMetallicRoughness" : {"baseColorFactor" : [1, 1, 1, 1], "baseColorTexture" : {"index" : 0, "texCoord" : 0}, "metallicFactor" : 1, "roughnessFactor" : 1, "metallicRoughnessTexture" : {"index" : 1, "texCoord" : 0}}, "emissiveFactor" : [0, 0, 0], "alphaMode" : "OPAQUE", "doubleSided" : true}, {"name" : "skel_controller_materials_controllerMTL1", "pbrMetallicRoughness" : {"baseColorFactor" : [1, 1, 1, 1], "baseColorTexture" : {"index" : 0, "texCoord" : 0}, "metallicFactor" : 1, "roughnessFactor" : 1, "metallicRoughnessTexture" : {"index" : 1, "texCoord" : 0}}, "emissiveFactor" : [0, 0, 0], "alphaMode" : "OPAQUE", "doubleSided" : true}, {"name" : "skel_controller_materials_controllerMTL1", "pbrMetallicRoughness" : {"baseColorFactor" : [1, 1, 1, 1], "baseColorTexture" : {"index" : 0, "texCoord" : 0}, "metallicFactor" : 1, "roughnessFactor" : 1, "metallicRoughnessTexture" : {"index" : 1, "texCoord" : 0}}, "emissiveFactor" : [0, 0, 0], "alphaMode" : "OPAQUE", "doubleSided" : true}, {"name" : "skel_controller_materials_controllerMTL1", "pbrMetallicRoughness" : {"baseColorFactor" : [1, 1, 1, 1], "baseColorTexture" : {"index" : 0, "texCoord" : 0}, "metallicFactor" : 1, "roughnessFactor" : 1, "metallicRoughnessTexture" : {"index" : 1, "texCoord" : 0}}, "emissiveFactor" : [0, 0, 0], "alphaMode" : "OPAQUE", "doubleSided" : true}, {"name" : "skel_controller_materials_controllerMTL1", "pbrMetallicRoughness" : {"baseColorFactor" : [1, 1, 1, 1], "baseColorTexture" : {"index" : 0, "texCoord" : 0}, "metallicFactor" : 1, "roughnessFactor" : 1, "metallicRoughnessTexture" : {"index" : 1, "texCoord" : 0}}, "emissiveFactor" : [0, 0, 0], "alphaMode" : "OPAQUE", "doubleSided" : true}], "meshes" : [{"primitives" : [{"attributes" : {"POSITION" : 1, "NORMAL" : 2, "TEXCOORD_0" : 3}, "indices" : 0, "material" : 0, "mode" : 4}]}, {"primitives" : [{"attributes" : {"POSITION" : 5, "NORMAL" : 6, "TEXCOORD_0" : 7}, "indices" : 4, "material" : 1, "mode" : 4}]}, {"primitives" : [{"attributes" : {"POSITION" : 9, "NORMAL" : 10, "TEXCOORD_0" : 11}, "indices" : 8, "material" : 2, "mode" : 4}]}, {"primitives" : [{"attributes" : {"POSITION" : 13, "NORMAL" : 14, "TEXCOORD_0" : 15}, "indices" : 12, "material" : 3, "mode" : 4}]}, {"primitives" : [{"attributes" : {"POSITION" : 17, "NORMAL" : 18, "TEXCOORD_0" : 19}, "indices" : 16, "material" : 4, "mode" : 4}]}, {"primitives" : [{"attributes" : {"POSITION" : 21, "NORMAL" : 22, "TEXCOORD_0" : 23}, "indices" : 20, "material" : 5, "mode" : 4}]}], "nodes" : [{"matrix" : [1, 0, 0, 0, 0, 0.7660443877445697, 0.6427876827992591, 0, 0, -0.6427876827992591, 0.7660443877445697, 0, -0.011245714500546455, -0.04086137190461159, 0.001261862926185131, 1], "mesh" : 0, "name" : "controller"}, {"matrix" : [0.9999138957105733, 0.012553119729689949, 0.00382365852307312, 0, -0.002109531500468581, -0.13382394364991468, 0.991002973509157, 0, 0.01295187462483835, -0.9909257100369302, -0.13378593964332142, 0, -0.0017604436725378036, -0.0015445984899997711, -0.004376200959086418, 1], "mesh" : 1, "name" : "x_button"}, {"children" : [1], "matrix" : [0.9999138957644496, -0.009941295652436177, 0.008565728023989139, 0, 0.01255311697352346, 0.5344400709321742, -0.8451131419153215, 0, 0.0038236514065924654, 0.8451479006804006, 0.5345188476268871, 0, -0.009449299424886703, -0.03635484352707863, 0.0023107442539185286, 1], "name" : "x_button_pressed_value"}, {"matrix" : [1, 0, 0, 0, 0, 0.7660443877445697, 0.6427876827992591, 0, 0, -0.6427876827992591, 0.7660443877445697, 0, 0.002212344668805599, -0.031618621200323105, 0.015126002952456474, 1], "mesh" : 2, "name" : "squeeze"}, {"children" : [3], "matrix" : [1, 0, 0, 0, 0, 1, 0, 0, 0, 0, 1, 0, -0.013458059169352055, -0.00924275629222393, -0.01386413536965847, 1], "name" : "xr_standard_squeeze_pressed_value"}, {"matrix" : [1, 0, 0, 0, 0, -0.17715013765013765, 0.9841838028470065, 0, 0, -0.9841838028470065, -0.17715013765013765, 0, -0.01821545884013176, -0.005994551815092564, 0.009850777685642242, 1], "mesh" : 3, "name" : "thumbstick"}, {"children" : [5], "name" : "xr_standard_thumbstick_yaxis_pressed_value"}, {"children" : [6], "name" : "xr_standard_thumbstick_xaxis_pressed_value"}, {"children" : [7], "matrix" : [1, 0, 0, 0, 0, 0.4969162029649894, -0.8677985747003518, 0, 0, 0.8677985747003518, 0.4969162029649894, 0, 0.006969742476940155, -0.04643106833100319, -0.008835215121507645, 1], "name" : "xr_standard_thumbstick_pressed_value"}, {"matrix" : [1, 0, 0, 0, 0, 0.7660443877445697, 0.6427876827992591, 0, 0, -0.6427876827992591, 0.7660443877445697, 0, -0.011245714500546455, 0.014749206602573395, 0.024522805586457253, 1], "mesh" : 4, "name" : "trigger"}, {"children" : [9], "matrix" : [1, 0, 0, 0, 0, 1, 0, 0, 0, 0, 1, 0, 0, -0.05561057850718498, -0.023260939866304398, 1], "name" : "xr_standard_trigger_pressed_value"}, {"matrix" : [1, 0, 0, 0, 0, -0.15082474426646542, 0.9885605003389131, 0, 0, -0.9885605003389131, -0.15082474426646542, 0, 0.002627580426633358, -0.0013347957283258438, 0.00908186286687851, 1], "mesh" : 5, "name" : "y_button"}, {"children" : [11], "matrix" : [1, 0, 0, 0, 0, 0.5198960067441192, -0.8542295910098971, 0, 0, 0.8542295910098971, 0.5198960067441192, 0, -0.013873293064534664, -0.04792541265487671, -0.004599983803927898, 1], "name" : "y_button_pressed_value"}, {"children" : [0, 2, 4, 8, 10, 12], "matrix" : [-0.9999997508976506, 3.765460872925742E-08, -4.0416200203031224E-08, 0, -3.765460872925742E-08, 0.0706575204549651, 0.9975005179456105, 0, 4.0416200203031224E-08, 0.9975005179456105, -0.07065727135261568, 0, -0.011751231737434864, 0.0008868854492902756, 0.01611914299428463, 1], "name" : "root"}], "samplers" : [{"magFilter" : 9729, "minFilter" : 9729, "wrapS" : 10497, "wrapT" : 10497}, {"magFilter" : 9729, "minFilter" : 9729, "wrapS" : 10497, "wrapT" : 10497}], "scene" : 0, "scenes" : [{"nodes" : [13]}], "textures" : [{"sampler" : 0, "source" : 0}, {"sampler" : 1, "source" : 1}]}