{"accessors" : [{"bufferView" : 0, "byteOffset" : 0, "componentType" : 5123, "count" : 324, "type" : "SCALAR", "max" : [323], "min" : [0]}, {"bufferView" : 1, "byteOffset" : 0, "componentType" : 5126, "count" : 324, "type" : "VEC3", "max" : [0.0037909280508756638, 0.010062583722174168, 0.0009011108195409179], "min" : [-0.0068819839507341385, -0.0006388638284988701, -0.003606995800510049], "name" : "POSITION"}, {"bufferView" : 1, "byteOffset" : 12, "componentType" : 5126, "count" : 324, "type" : "VEC3", "max" : [0.9997903108596802, 0.988619863986969, 0.9982979893684387], "min" : [-0.9997904300689697, -0.9776450991630554, -0.14290478825569153], "name" : "NORMAL"}, {"bufferView" : 1, "byteOffset" : 24, "componentType" : 5126, "count" : 324, "type" : "VEC2", "max" : [0.8507827520370483, 0.896977424621582], "min" : [0.010026395320892334, 0.005353450775146484], "name" : "TEXCOORD_0"}, {"bufferView" : 0, "byteOffset" : 648, "componentType" : 5123, "count" : 324, "type" : "SCALAR", "max" : [323], "min" : [0]}, {"bufferView" : 2, "byteOffset" : 0, "componentType" : 5126, "count" : 324, "type" : "VEC3", "max" : [0.007884331978857517, -0.003985998686403036, 0.003223894163966179], "min" : [-0.0027939495630562305, -0.014667167328298092, -0.001203984604217112], "name" : "POSITION"}, {"bufferView" : 2, "byteOffset" : 12, "componentType" : 5126, "count" : 324, "type" : "VEC3", "max" : [0.9998211860656738, 0.9876388311386108, 0.9975436925888062], "min" : [-0.9998212456703186, -0.9776505827903748, -0.13371840119361877], "name" : "NORMAL"}, {"bufferView" : 2, "byteOffset" : 24, "componentType" : 5126, "count" : 324, "type" : "VEC2", "max" : [0.9652983546257019, 0.5550086498260498], "min" : [0.009226113557815552, 0.007271289825439453], "name" : "TEXCOORD_0"}, {"bufferView" : 0, "byteOffset" : 1296, "componentType" : 5123, "count" : 6606, "type" : "SCALAR", "max" : [6605], "min" : [0]}, {"bufferView" : 3, "byteOffset" : 0, "componentType" : 5126, "count" : 6606, "type" : "VEC3", "max" : [0.04607502371072769, 0.07187692075967789, 0.07469385862350464], "min" : [-0.04574624449014664, -0.03321479260921478, -0.04849151894450188], "name" : "POSITION"}, {"bufferView" : 3, "byteOffset" : 12, "componentType" : 5126, "count" : 6606, "type" : "VEC3", "max" : [0.9999613165855408, 0.9999666810035706, 0.9906385540962219], "min" : [-0.9998956322669983, -0.9999985694885254, -0.9976498484611511], "name" : "NORMAL"}, {"bufferView" : 3, "byteOffset" : 24, "componentType" : 5126, "count" : 6606, "type" : "VEC2", "max" : [0.9930552840232849, 0.9940357208251953], "min" : [0.008103162050247192, 0.008068501949310303], "name" : "TEXCOORD_0"}, {"bufferView" : 0, "byteOffset" : 14508, "componentType" : 5123, "count" : 924, "type" : "SCALAR", "max" : [923], "min" : [0]}, {"bufferView" : 4, "byteOffset" : 0, "componentType" : 5126, "count" : 924, "type" : "VEC3", "max" : [0.00989296194165945, 0.035362087190151215, -0.018384242430329323], "min" : [-0.00291044102050364, 0.010134126991033554, -0.0378272607922554], "name" : "POSITION"}, {"bufferView" : 4, "byteOffset" : 12, "componentType" : 5126, "count" : 924, "type" : "VEC3", "max" : [0.999701738357544, 0.9657920598983765, 0.9995603561401367], "min" : [-0.19561320543289185, -0.9905902147293091, -0.9941802620887756], "name" : "NORMAL"}, {"bufferView" : 4, "byteOffset" : 24, "componentType" : 5126, "count" : 924, "type" : "VEC2", "max" : [0.9920789003372192, 0.866949200630188], "min" : [0.4958495795726776, 0.5714346766471863], "name" : "TEXCOORD_0"}, {"bufferView" : 0, "byteOffset" : 16356, "componentType" : 5123, "count" : 777, "type" : "SCALAR", "max" : [776], "min" : [0]}, {"bufferView" : 5, "byteOffset" : 0, "componentType" : 5126, "count" : 777, "type" : "VEC3", "max" : [-0.009655728004872799, -0.0015822401037439704, 0.011600414291024208], "min" : [-0.026728563010692596, -0.01842714473605156, -0.0014641403686255217], "name" : "POSITION"}, {"bufferView" : 5, "byteOffset" : 12, "componentType" : 5126, "count" : 777, "type" : "VEC3", "max" : [0.9933454394340515, 0.9679998159408569, 0.9922298789024353], "min" : [-0.9915006160736084, -0.9878067374229431, -0.9044526815414429], "name" : "NORMAL"}, {"bufferView" : 5, "byteOffset" : 24, "componentType" : 5126, "count" : 777, "type" : "VEC2", "max" : [0.45035451650619507, 0.9726905226707458], "min" : [0.007637053728103638, 0.767251193523407], "name" : "TEXCOORD_0"}, {"bufferView" : 0, "byteOffset" : 17912, "componentType" : 5123, "count" : 1050, "type" : "SCALAR", "max" : [1049], "min" : [0]}, {"bufferView" : 6, "byteOffset" : 0, "componentType" : 5126, "count" : 1050, "type" : "VEC3", "max" : [0.0036138819996267557, -0.013245987705886364, -0.0065859779715538025], "min" : [-0.022879868745803833, -0.030473319813609123, -0.031836751848459244], "name" : "POSITION"}, {"bufferView" : 6, "byteOffset" : 12, "componentType" : 5126, "count" : 1050, "type" : "VEC3", "max" : [0.999804675579071, 0.2803348898887634, 0.8579169511795044], "min" : [-0.999804675579071, -0.9985312819480896, -0.9999986290931702], "name" : "NORMAL"}, {"bufferView" : 6, "byteOffset" : 24, "componentType" : 5126, "count" : 1050, "type" : "VEC2", "max" : [0.9920796155929565, 0.8276009559631348], "min" : [0.8686429262161255, 0.009923219680786133], "name" : "TEXCOORD_0"}], "asset" : {"generator" : "Aspose.3D 21.11", "version" : "2.0"}, "buffers" : [{"uri" : "data:application/octet-stream;base64,", "byteLength" : 340200}], "bufferViews" : [{"buffer" : 0, "byteOffset" : 0, "byteLength" : 20012, "target" : 34963}, {"buffer" : 0, "byteOffset" : 20016, "byteLength" : 10368, "byteStride" : 32, "target" : 34962}, {"buffer" : 0, "byteOffset" : 30388, "byteLength" : 10368, "byteStride" : 32, "target" : 34962}, {"buffer" : 0, "byteOffset" : 40760, "byteLength" : 211392, "byteStride" : 32, "target" : 34962}, {"buffer" : 0, "byteOffset" : 252156, "byteLength" : 29568, "byteStride" : 32, "target" : 34962}, {"buffer" : 0, "byteOffset" : 281728, "byteLength" : 24864, "byteStride" : 32, "target" : 34962}, {"buffer" : 0, "byteOffset" : 306596, "byteLength" : 33600, "byteStride" : 32, "target" : 34962}], "images" : [{"uri" : "data:image/png;base64,"}, {"uri" : "data:image/png;base64,"}], "materials" : [{"name" : "skel_controller_materials_controllerMTL", "pbrMetallicRoughness" : {"baseColorFactor" : [1, 1, 1, 1], "baseColorTexture" : {"index" : 0, "texCoord" : 0}, "metallicFactor" : 1, "roughnessFactor" : 1, "metallicRoughnessTexture" : {"index" : 1, "texCoord" : 0}}, "emissiveFactor" : [0, 0, 0], "alphaMode" : "OPAQUE", "doubleSided" : true}, {"name" : "skel_controller_materials_controllerMTL", "pbrMetallicRoughness" : {"baseColorFactor" : [1, 1, 1, 1], "baseColorTexture" : {"index" : 0, "texCoord" : 0}, "metallicFactor" : 1, "roughnessFactor" : 1, "metallicRoughnessTexture" : {"index" : 1, "texCoord" : 0}}, "emissiveFactor" : [0, 0, 0], "alphaMode" : "OPAQUE", "doubleSided" : true}, {"name" : "skel_controller_materials_controllerMTL", "pbrMetallicRoughness" : {"baseColorFactor" : [1, 1, 1, 1], "baseColorTexture" : {"index" : 0, "texCoord" : 0}, "metallicFactor" : 1, "roughnessFactor" : 1, "metallicRoughnessTexture" : {"index" : 1, "texCoord" : 0}}, "emissiveFactor" : [0, 0, 0], "alphaMode" : "OPAQUE", "doubleSided" : true}, {"name" : "skel_controller_materials_controllerMTL", "pbrMetallicRoughness" : {"baseColorFactor" : [1, 1, 1, 1], "baseColorTexture" : {"index" : 0, "texCoord" : 0}, "metallicFactor" : 1, "roughnessFactor" : 1, "metallicRoughnessTexture" : {"index" : 1, "texCoord" : 0}}, "emissiveFactor" : [0, 0, 0], "alphaMode" : "OPAQUE", "doubleSided" : true}, {"name" : "skel_controller_materials_controllerMTL", "pbrMetallicRoughness" : {"baseColorFactor" : [1, 1, 1, 1], "baseColorTexture" : {"index" : 0, "texCoord" : 0}, "metallicFactor" : 1, "roughnessFactor" : 1, "metallicRoughnessTexture" : {"index" : 1, "texCoord" : 0}}, "emissiveFactor" : [0, 0, 0], "alphaMode" : "OPAQUE", "doubleSided" : true}, {"name" : "skel_controller_materials_controllerMTL", "pbrMetallicRoughness" : {"baseColorFactor" : [1, 1, 1, 1], "baseColorTexture" : {"index" : 0, "texCoord" : 0}, "metallicFactor" : 1, "roughnessFactor" : 1, "metallicRoughnessTexture" : {"index" : 1, "texCoord" : 0}}, "emissiveFactor" : [0, 0, 0], "alphaMode" : "OPAQUE", "doubleSided" : true}], "meshes" : [{"primitives" : [{"attributes" : {"POSITION" : 1, "NORMAL" : 2, "TEXCOORD_0" : 3}, "indices" : 0, "material" : 0, "mode" : 4}]}, {"primitives" : [{"attributes" : {"POSITION" : 5, "NORMAL" : 6, "TEXCOORD_0" : 7}, "indices" : 4, "material" : 1, "mode" : 4}]}, {"primitives" : [{"attributes" : {"POSITION" : 9, "NORMAL" : 10, "TEXCOORD_0" : 11}, "indices" : 8, "material" : 2, "mode" : 4}]}, {"primitives" : [{"attributes" : {"POSITION" : 13, "NORMAL" : 14, "TEXCOORD_0" : 15}, "indices" : 12, "material" : 3, "mode" : 4}]}, {"primitives" : [{"attributes" : {"POSITION" : 17, "NORMAL" : 18, "TEXCOORD_0" : 19}, "indices" : 16, "material" : 4, "mode" : 4}]}, {"primitives" : [{"attributes" : {"POSITION" : 21, "NORMAL" : 22, "TEXCOORD_0" : 23}, "indices" : 20, "material" : 5, "mode" : 4}]}], "nodes" : [{"matrix" : [0.9998270399572672, 0.018598122841064935, 7.65149754666794E-09, 0, 0.0025682250276550245, -0.13806708377423016, 0.9904195594928468, 0, 0.018419945532458182, -0.9902482564653098, -0.1380909678513278, 0, 0.0015321746468544006, -0.0015249550342559814, -0.0043878257274627686, 1], "mesh" : 0, "name" : "a_button"}, {"children" : [0], "matrix" : [0.9998270399364114, 0.015338258139111244, 0.010517990696889912, 0, 0.01859812600886948, -0.824578115437351, -0.5654430786049269, 0, -9.359116648344212E-09, 0.5655408944280842, -0.8247207592186268, 0, 0.00829384010285139, 0.002513288287445903, 0.03650239482522011, 1], "name" : "a_button_pressed_value"}, {"matrix" : [1, 0, 0, 0, 0, -0.15512948601566023, 0.9878941613886028, 0, 0, -0.9878941613886028, -0.15512948601566023, 0, -0.002528705634176731, -0.0013651810586452484, 0.00906282290816307, 1], "mesh" : 1, "name" : "b_button"}, {"children" : [2], "matrix" : [1, 0, 0, 0, 0, -0.8343393609216037, -0.5512519622012064, 0, 0, 0.5512519622012064, -0.8343393609216037, 0, 0.012326094321906567, -0.004822452086955309, 0.047808580100536346, 1], "name" : "b_button_pressed_value"}, {"mesh" : 2, "name" : "controller"}, {"matrix" : [1, 0, 0, 0, 0, 0.7632371835121727, 0.6461184144820074, 0, 0, -0.6461184144820074, 0.7632371835121727, 0, -0.002988424152135849, -0.03165068477392197, 0.015142062678933144, 1], "mesh" : 3, "name" : "squeeze"}, {"children" : [5], "matrix" : [1, 0, 0, 0, 0, 0.036380150555913815, -0.9993382323932565, 0, 0, 0.9993382323932565, 0.036380150555913815, 0, 0.01278581190854311, -0.0125826271250844, 0.010126201435923576, 1], "name" : "xr_standard_squeeze_pressed_value"}, {"matrix" : [1, 0, 0, 0, 0, -0.18143562350014264, 0.9834028415949945, 0, 0, -0.9834028415949945, -0.18143562350014264, 0, 0.01835549809038639, -0.006024425849318504, 0.009830936789512634, 1], "mesh" : 4, "name" : "thumbstick"}, {"children" : [7], "name" : "xr_standard_thumbstick_yaxis_pressed_value"}, {"children" : [8], "name" : "xr_standard_thumbstick_xaxis_pressed_value"}, {"children" : [9], "matrix" : [1, 0, 0, 0, 0, -0.8379112821095305, -0.545806833505651, 0, 0, 0.545806833505651, -0.8379112821095305, 0, -0.00855810847133398, -0.008842351846396923, 0.046442750841379166, 1], "name" : "xr_standard_thumbstick_pressed_value"}, {"matrix" : [1, 0, 0, 0, 0, 0.7632371835121727, 0.6461184144820074, 0, 0, -0.6461184144820074, 0.7632371835121727, 0, 0.009797388687729836, 0.014717146754264832, 0.02453886717557907, 1], "mesh" : 5, "name" : "trigger"}, {"children" : [11], "matrix" : [1, 0, 0, 0, 0, -1.3435885648505064E-07, -0.9999999657714511, 0, 0, 0.9999999657714511, -1.3435885648505064E-07, 0, 0, -0.0232609361410141, 0.05561058968305588, 1], "name" : "xr_standard_trigger_pressed_value"}, {"children" : [1, 3, 4, 6, 10, 12], "matrix" : [-0.9993973635742337, -4.088016385977715E-20, -3.2530258145832015E-18, 0, 4.0880173612255645E-20, 0.9990808937269078, -0.0251145035520542, 0, 3.254990968010026E-18, -0.02512966923275961, -0.9996852998560826, 0, 0.009800083935260773, -0.0006208197446539998, 0.017782049253582954, 1], "name" : "root"}], "samplers" : [{"magFilter" : 9729, "minFilter" : 9729, "wrapS" : 10497, "wrapT" : 10497}, {"magFilter" : 9729, "minFilter" : 9729, "wrapS" : 10497, "wrapT" : 10497}], "scene" : 0, "scenes" : [{"nodes" : [13]}], "textures" : [{"sampler" : 0, "source" : 0}, {"sampler" : 1, "source" : 1}]}